<svg width="100pt" height="100pt" version="1.1" viewBox="0 0 100 100" xmlns="http://www.w3.org/2000/svg">
 <path d="m52.949 63.461c-0.22656-0.23047-0.36719-0.54297-0.36719-0.89063 0-0.69531 0.5625-1.2578 1.2578-1.2578h10.242c0.69531 0 1.2578 0.5625 1.2578 1.2578 0 0.69141-0.5625 1.2578-1.2578 1.2578h-10.242c-0.34766 0-0.66016-0.14062-0.89062-0.36719zm-5.2578 0.36719h2.4805c0.69141 0 1.2578-0.5625 1.2578-1.2578 0-0.69531-0.5625-1.2578-1.2578-1.2578h-2.4805c-0.69141 0-1.2578 0.5625-1.2578 1.2578 0 0.34766 0.14062 0.66016 0.36719 0.89063 0.22656 0.22656 0.54297 0.36719 0.89062 0.36719zm-11.781 0h8.1133c0.69531 0 1.2578-0.5625 1.2578-1.2578 0-0.69531-0.5625-1.2578-1.2578-1.2578h-8.1133c-0.69531 0-1.2578 0.5625-1.2578 1.2578 0 0.34766 0.14062 0.66016 0.36719 0.89063 0.23047 0.22656 0.54297 0.36719 0.89062 0.36719zm44.215 17.668c-1.1172 3.8047-3.7266 6.8164-7.9648 9.1992-4.5547 2.5625-10.074 3.9883-16.402 4.2344-1.4258 0.003906-2.7266 0.019531-3.9688 0.035156-1.25 0.019531-2.4336 0.035156-3.5742 0.035156-2.3828 0-5.1953-0.058594-8-0.48438-5.9961-0.90625-12.188-2.4258-16.816-7.3125-3.6289-3.8242-4.9297-8.582-3.8594-14.133 0.60547-3.1836 1.1211-6.4805 1.6172-9.668l0.13672-0.87109c0.41406-2.6016 1.0078-5.2031 1.582-7.7227l0.082031-0.35938c0.66797-2.9492 1.3281-5.8398 2.1133-8.7148 2.2227-8.2578 4.5195-16.309 8.1641-23.965 1.5859-3.3516 3.8125-7.7148 6.9531-11.672 2.5664-3.2383 6.1953-5.0977 9.9531-5.0977 3.25 0 6.332 1.4141 8.6719 3.9805 3.8828 4.2305 6.3672 9.1953 8.3945 13.52 1.4609 3.1016 2.6836 6.3008 3.7773 9.5234 0.10156 0.16016 0.17969 0.33984 0.19922 0.54297 0 0.011719-0.003906 0.019532-0.003906 0.027344 1.1953 3.582 2.2422 7.1914 3.2695 10.738l0.23438 0.81641c1.1641 4.0586 2.0312 8.2617 2.8633 12.328 0.23047 1.1328 0.46484 2.2617 0.70312 3.3906 0.60156 2.8555 1.0586 5.7617 1.5 8.5742 0.24219 1.5352 0.48047 3.0703 0.74609 4.6016 0.53906 3.0742 0.41797 5.7656-0.37109 8.4531zm-48.145-49.922c11.766 1.0547 24.383 1.0508 36.145-0.011719-0.95312-2.7109-2.0078-5.3867-3.2266-7.9766-1.9492-4.1523-4.3281-8.9141-7.9688-12.883-1.8789-2.0586-4.2266-3.1484-6.7852-3.1484-2.9727 0-5.8711 1.5078-7.9531 4.1328-2.9766 3.7578-5.1172 7.9492-6.6484 11.18-1.3555 2.8438-2.5195 5.75-3.5625 8.707zm-8.3008 32.223c-0.10156 0.64453-0.20703 1.3086-0.3125 1.9609 8.5312 1.1992 17.559 1.8203 26.867 1.8203 9.168 0 18.074-0.60156 26.5-1.7695-0.29688-1.8125-0.60938-3.6328-0.98828-5.4219-0.23828-1.1328-0.47266-2.2656-0.70703-3.4023-0.82422-4.0195-1.6797-8.1719-2.8164-12.133l-0.23438-0.81641c-0.95312-3.3047-1.9258-6.6602-3.0195-9.9844-6.1602 0.57812-12.531 0.87891-18.973 0.87891-6.3984 0-12.738-0.29688-18.863-0.86719-1.3281 4.0312-2.4727 8.1562-3.5977 12.336-0.76953 2.8281-1.4258 5.6875-2.0859 8.6133l-0.082031 0.35938c-0.5625 2.4766-1.1484 5.0391-1.5508 7.5547zm54.297 9.6758c-0.26562-1.543-0.51172-3.0898-0.75391-4.6406-0.023437-0.16016-0.054687-0.32812-0.078125-0.49219-8.5625 1.1875-17.605 1.8008-26.91 1.8008-9.4414 0-18.605-0.62891-27.27-1.8516-0.28516 1.7656-0.58984 3.5273-0.92188 5.2695-0.91797 4.7617 0.13281 8.6523 3.2031 11.891 3.8711 4.0859 8.9336 5.5703 15.344 6.543 2.6367 0.39844 5.332 0.45312 7.6172 0.45312 1.1328 0 2.3047-0.015624 3.5391-0.03125 1.25-0.015624 2.5625-0.03125 3.9492-0.035156 5.875-0.23047 11.008-1.5469 15.203-3.9062 3.6836-2.0703 5.832-4.5156 6.7656-7.6953 0.68359-2.3008 0.78125-4.6211 0.3125-7.3047z"/>
</svg>
