<svg width="100pt" height="100pt" version="1.1" viewBox="0 0 100 100" xmlns="http://www.w3.org/2000/svg">
 <path d="m65.711 45.09c-1.6289 1.6289-3.5547 2.0234-4.6758 0.96094-1.0859-1.0273-0.78906-3.4336 0.77344-4.7734 1.8477-1.5859 3.6094-2.2617 4.8789-0.88281 1.0195 1.1016 0.62109 3.0938-0.97656 4.6953zm-5.9531-11.734c-1.2578-1.1992-3.0703-0.86328-4.8008 0.88672-1.6016 1.625-1.9844 3.6367-0.90234 4.7422 1.0195 1.043 3.2578 0.62109 4.7891-0.89844 1.6406-1.6289 2.0312-3.6602 0.91406-4.7305zm35.137 60.16c0.09375 0.57422-0.21484 1.1445-0.75 1.375-0.16406 0.074219-0.33984 0.10938-0.51172 0.10938-0.38281 0-0.75781-0.17578-1.0078-0.48828-1.2266-1.5664-4.7812-5.8984-6.4727-7.1211-3.8125-2.7461-7.0469-3.4492-10.547-2.3359-1.6758 0.52344-2.6992-0.074219-3.2422-1.625-0.61719-1.8047-1.5742-3.5234-2.9336-5.2695-2.6641-3.4102-5.5781-4.0781-9.4219-2.2383-0.8125 0.39062-1.3008 0.625-1.8398 0.625-1.5039 0-1.6719-1.4336-1.8086-2.5859-0.46094-4.1875-2.7812-6.7383-6.5352-7.1953-0.18359-0.023437-0.37109-0.027344-0.55469-0.042969 0.48438 4.1289-0.96875 10.434-11.48 15.812 1.8945 2.4922 5.0117 7.1523 5.4375 7.793 0.39063 0.58984 0.23438 1.3828-0.35547 1.7734-0.21875 0.14453-0.46484 0.21484-0.70703 0.21484-0.41406 0-0.81641-0.19922-1.0664-0.57031-1.9492-2.9219-5.3594-7.8789-6.2266-8.7461-0.29688-0.29688-0.42969-0.71484-0.35547-1.125 0.070313-0.41016 0.33984-0.76172 0.71875-0.9375 10.34-4.8203 12.074-10.234 11.457-14.227-0.95703 0.078124-1.9453 0.23047-2.9922 0.47656-4.8828 1.1211-15.68 6.1953-15.789 6.2461-0.49609 0.23438-1.0859 0.125-1.4648-0.26562-0.37891-0.39453-0.46875-0.98438-0.21875-1.4727 0.023438-0.046874 2.375-4.6289 3.4258-6.8984 1.8867-4.1289 3.2109-7.75 3.4961-11.504-5.3711-0.75391-10.223 3.1797-14.09 11.469-0.17578 0.37891-0.52734 0.64453-0.9375 0.71875-0.074219 0.015625-0.14844 0.019531-0.22266 0.019531-0.33594 0-0.66016-0.13281-0.90234-0.375-0.86328-0.86328-5.8242-4.2773-8.7461-6.2266-0.58594-0.39063-0.74609-1.1836-0.35547-1.7734s1.1836-0.74609 1.7734-0.35547c0.64062 0.42578 5.3008 3.543 7.793 5.4375 5.3594-10.469 11.645-11.93 15.719-11.488-0.30469-4.0977-2.9844-6.832-7.1133-7.1914-1.2148-0.10547-2.0898-0.18359-2.5547-1.0234-0.46875-0.85156-0.054688-1.6602 0.51953-2.7852 1.4805-2.9219 1.2617-5.3672-0.69922-7.7031-1.5469-1.8516-3.6602-3.2773-6.2812-4.2461-0.85547-0.29688-1.8086-0.73828-2.2148-1.7031-0.29688-0.71484-0.22266-1.5312 0.23828-2.4883 0.19531-0.40234 0.22266-1.0586 0.23438-1.6445 0.12109-4.2852-1.7109-7.7891-6.125-11.73-1.0898-0.96875-3.5742-2.9023-3.5977-2.9219-0.46484-0.35156-0.625-0.98047-0.39063-1.5156 0.23828-0.53516 0.80859-0.83984 1.3828-0.75 0.26953 0.046875 28.664 4.707 41.941 4.1094l0.24609-0.003906c0.37109 0 1.5117 0 2.0977 0.91016 0.59766 0.92969 0.11328 2.0039-0.097656 2.4609-0.27344 0.59375-0.45703 1.2539-0.61328 1.8789-1.4961 5.6719-1.4844 11.668 0.042968 18.309l11.504-11.504c0.33203-0.33203 0.82031-0.45703 1.2734-0.32031 0.44922 0.13672 0.78906 0.51172 0.88281 0.97266l1.0586 5.2891c1.8711 0.57031 3.5781 1.5977 4.9805 3 1.3984 1.3984 2.4258 3.1055 3 4.9805l5.2891 1.0586c0.46094 0.09375 0.83594 0.43359 0.97266 0.88281 0.13672 0.45313 0.015625 0.94141-0.32031 1.2734l-11.438 11.418c2.4648 0.55078 4.6914 0.89062 6.7969 1.043 4.9375 0.375 9.2773-0.19141 13.434-1.7344 1.2305-0.45703 2.0859-0.30859 2.6562 0.33203 0.5625 0.63281 0.54297 1.4844 0.47656 2.0664-0.12109 0.94922-0.13672 1.9219-0.14453 2.8594-0.097657 12.109 4.2344 38.949 4.2773 39.219zm-3.2383-4.1836c-1.2461-8.293-3.6719-25.688-3.5938-35.059 0.011719-0.84375 0.023438-1.7773 0.11719-2.7148-4.4023 1.5781-9.0195 2.1562-14.172 1.7656-2.5508-0.18359-5.2695-0.625-8.3008-1.3594-0.085937-0.019532-0.21094-0.03125-0.33594-0.046875-0.32031-0.039063-0.65625-0.089844-0.94141-0.17969-0.42969-0.13281-0.75781-0.48047-0.86328-0.91406-0.10547-0.43359 0.019532-0.89453 0.33984-1.2109l11.426-11.426-3.7266-0.74609c-0.49219-0.097656-0.88281-0.47656-0.99609-0.96875-0.39453-1.7188-1.2695-3.293-2.5312-4.5547s-2.8359-2.1367-4.5547-2.5312c-0.48828-0.11328-0.86719-0.50391-0.96875-0.99609l-0.74609-3.7227-11.461 11.465c-0.30859 0.30859-0.75 0.43359-1.1758 0.34766-0.42578-0.09375-0.77344-0.39453-0.92578-0.80078-0.14062-0.37109-0.19531-0.74609-0.25-1.0742-0.023438-0.14453-0.042969-0.28906-0.074219-0.41406-1.8438-7.4297-1.9258-14.121-0.25391-20.457 0.16406-0.64453 0.35547-1.3438 0.64844-2.0352-10.152 0.39062-28.797-2.1289-37.473-3.4258 0.011719 0.011718 0.023438 0.019531 0.035156 0.03125 3.3477 2.9883 7.1602 7.2422 6.9805 13.699-0.015625 0.84375-0.066406 1.8242-0.48438 2.6914-0.089844 0.18359-0.12891 0.30859-0.14844 0.38672 0.09375 0.058594 0.28516 0.15625 0.67969 0.29297 3.0703 1.1328 5.5469 2.8164 7.3828 5.0117 2.625 3.1289 2.9648 6.6602 1.0156 10.504-0.015626 0.03125-0.03125 0.0625-0.050782 0.097656 0.011719 0 0.019532 0 0.03125 0.003907 5.6445 0.49219 9.3633 4.5156 9.4805 10.25 0.14062 5.5352-1.8828 10.453-3.793 14.633-0.46875 1.0156-1.168 2.4375-1.8203 3.7383 3.6875-1.6406 9.5508-4.1211 12.965-4.9023 2.5273-0.59375 4.8359-0.74609 7.0273-0.46875 4.9531 0.60547 8.1445 4.0273 8.7539 9.3906 0.003906 0 0.003906-0.003906 0.007812-0.003906 4.9375-2.3672 9.1641-1.3516 12.543 2.9688 1.5352 1.9766 2.625 3.9375 3.332 6.0078 0.003906 0.011719 0.007812 0.023437 0.015625 0.039062 0.011719-0.003906 0.027344-0.007812 0.039063-0.011719 1.2812-0.41016 2.582-0.61719 3.8594-0.61719 2.9297 0 5.8594 1.0859 8.957 3.3164 1.082 0.76953 2.6367 2.4297 4.0039 4zm-6.5469-14.859c-0.69922 0.089844-1.1953 0.72656-1.1094 1.4258l0.31641 2.5312c0.082032 0.64453 0.63281 1.1172 1.2695 1.1172 0.050781 0 0.10547-0.003906 0.16016-0.011719 0.69922-0.085937 1.1953-0.72656 1.1094-1.4258l-0.31641-2.5312c-0.089843-0.69922-0.72656-1.1875-1.4297-1.1055zm-0.5625-4.5234c0.69922-0.089844 1.1953-0.72656 1.1094-1.4258l-1.3555-10.848c-0.085937-0.69922-0.72266-1.1875-1.4258-1.1094-0.69922 0.089844-1.1953 0.72656-1.1094 1.4297l1.3555 10.844c0.082031 0.64844 0.63281 1.1211 1.2656 1.1211 0.050781 0 0.10547-0.003907 0.16016-0.011719z"/>
</svg>
