<svg width="100pt" height="100pt" version="1.1" viewBox="0 0 100 100" xmlns="http://www.w3.org/2000/svg">
 <path d="m50.07 35.617c-2.6016 0-4.9648-1.543-6.0234-3.9336-0.28516-0.64453 0.003906-1.3984 0.64844-1.6836 0.64453-0.28516 1.3984 0.003906 1.6836 0.64844 0.64844 1.4688 2.0977 2.4141 3.6914 2.4141s3.0391-0.94922 3.6914-2.4141c0.28516-0.64453 1.0391-0.9375 1.6836-0.64844 0.64453 0.28516 0.9375 1.0391 0.64844 1.6836-1.0586 2.3906-3.4219 3.9336-6.0234 3.9336zm-9.418-8.5117c2.2773 0.042969 4.5547-1.9414 4.3125-4.082-0.28516-2.5273-1.457-4.3164-4.3125-4.2383-2.2891 0.0625-4.0117 1.8203-4.0117 4.1758 0.003906 2.3945 1.6562 4.1016 4.0117 4.1445zm18.477-8.4023c-2.3594-0.039063-4.1328 1.7461-4.1172 4.1523 0.011719 2.25 1.9727 4.2031 4.1992 4.1875 2.3555-0.015625 4.1172-1.7812 4.1406-4.1562 0.023438-2.5586-1.5742-4.1406-4.2227-4.1836zm1.9922 73.777c-1.8125-1.8203-3.6641-3.832-5.5078-5.9805l-0.71484-0.82422c-2.3984-2.7578-4.8789-5.6133-4.9609-9.0117-0.023438-0.92969 0.125-1.6992 0.44141-2.2812 0.62891-1.1641 1.9961-1.8594 3.4414-2.5977 0.68359-0.34766 1.3906-0.71094 2.0312-1.1328 2.0938-1.3789 3.8828-3.0352 5.3125-4.9297 2.6367-3.4805 4.2031-7.9336 4.668-13.324 0.011719-0.13672 0.023438-0.28125 0.035157-0.41016 0.14453 0 0.3125 0.007813 0.49609 0.011719 0.16797 0.003906 0.33594 0.003906 0.50781 0.003906l0.76172-0.003906c3.1602 0 6.4844-0.25781 9.3789-2.1172 5.1562-3.3203 7.7617-8.3789 7.9648-15.465 0.03125-1.0859-0.44141-2.0312-0.78125-2.7227-1.1875-2.4023-3.293-3.7188-6.0859-3.8008l-0.17969-0.003906c-2.2578 0-4.0078 1.2734-5.1992 3.7773-0.14453 0.29688-0.27734 0.59766-0.41797 0.89844-0.20312 0.44531-0.40234 0.88672-0.62891 1.3164-0.20312 0.39063-0.40625 0.76172-0.63281 0.98047-0.35156 0.34375-0.72656 0.53125-1.0547 0.53125-0.59766 0-0.89844-0.66406-1-0.94922-0.70703-1.9922-0.74609-4.1172-0.79297-6.4766-0.070313-3.5859-0.21484-7.0977-1.1797-10.602-2.0039-7.2891-7.3125-11.652-14.938-12.281-3.5977-0.29688-6.707 0.089843-9.5977 1.1797-5.3984 2.0352-8.7109 6.2852-9.8438 12.641-0.57031 3.2031-0.67969 6.457-0.78516 9.6094-0.023437 0.73438-0.050781 1.4727-0.078125 2.2148-0.003906 0.13281-0.003906 0.27344 0 0.41406v0.011719c-0.10156-0.039062-0.25-0.11328-0.45312-0.25-0.4375-0.29297-0.64453-0.82031-0.83594-1.5781-0.12109-0.48047-0.22656-0.96875-0.33203-1.457-0.28125-1.3008-0.57031-2.6445-1.1836-3.9492-1.3086-2.7852-3.875-4.5156-6.7031-4.5156-1.8594 0-3.6445 0.76562-5.0312 2.1602-1.6719 1.6836-2.4297 4.0078-2.1836 6.7227 0.34766 3.8438 1.6523 7.5508 3.8789 11.012 1.7148 2.668 4.2461 4.6992 7.5273 6.0469-2.1836 3.668-4.4883 8.0781-5.2734 13.098-0.98828 6.3398-1.1406 15.43 3.7383 22.738 2.3516 3.5195 5.6133 6.4102 9.4375 8.3594 3.4062 1.7344 7.1953 2.3555 10.863 2.9531 0.74609 0.12109 1.4922 0.24219 2.2305 0.375 4.4688 0.79688 8.5977 1.3711 12.625 1.7695l3.5469 0.35938zm-34.449-67.465c0.49219 1.043 0.73828 2.1875 1 3.4023 0.11328 0.51953 0.22266 1.0352 0.35547 1.5508 0.27344 1.0703 0.71094 2.2734 1.8789 3.0625 1.1797 0.80078 2.2773 0.93359 3.2617 0.44531 1.2227-0.60547 1.1875-1.8555 1.1758-2.3906-0.003906-0.085938-0.003906-0.16797-0.003906-0.24609 0.03125-0.74219 0.054687-1.4844 0.082031-2.2305 0.10156-3.0586 0.20703-6.2227 0.74609-9.2461 0.97656-5.4805 3.668-8.9805 8.2305-10.699 2.5312-0.95312 5.2773-1.2852 8.4844-1.0234 6.5742 0.54297 10.961 4.1406 12.688 10.41 0.88281 3.2188 1.0195 6.5547 1.0859 10.078 0.046875 2.3555 0.09375 4.793 0.9375 7.1719 0.57812 1.6328 1.8867 2.6484 3.4062 2.6484 1 0 2.0078-0.44922 2.8398-1.2617 0.48828-0.48047 0.8125-1.0625 1.1055-1.6211 0.24609-0.47266 0.46875-0.95703 0.6875-1.4414 0.12891-0.28516 0.25781-0.56641 0.39844-0.85547 0.97266-2.0469 2.0078-2.3242 2.9922-2.3242h0.007812c1.8398 0.054688 3.1055 0.83594 3.8711 2.3828 0.23438 0.47656 0.53125 1.0664 0.51562 1.5156-0.17578 6.1836-2.3984 10.562-6.7891 13.391-2.207 1.418-4.793 1.7109-8.0469 1.7109l-0.71094 0.003907-0.44141-0.003907c-0.25391-0.007812-0.47266-0.011718-0.66016-0.011718-2.25 0-2.3672 1.3984-2.4883 2.8281-0.41406 4.8203-1.8125 8.832-4.1523 11.922-1.2578 1.6602-2.832 3.1211-4.6836 4.3398-0.52344 0.34375-1.1367 0.65625-1.7891 0.98828-1.6484 0.84375-3.5195 1.7969-4.5273 3.6562-0.53125 0.98047-0.78125 2.1797-0.74609 3.5586 0.10547 4.3164 3.0195 7.6641 5.5898 10.625l0.70312 0.8125c1.0586 1.2305 2.1172 2.4219 3.1758 3.5586-2.8672-0.35156-5.8164-0.80078-8.9375-1.3555-0.75-0.13281-1.5039-0.25781-2.2656-0.38281-3.4727-0.56641-7.0664-1.1562-10.113-2.7109-3.4375-1.75-6.3672-4.3438-8.4727-7.5039-4.4219-6.625-4.2578-15.035-3.3359-20.93 0.73047-4.6758 2.9648-8.8789 5.0547-12.371 0.32031-0.53516 0.65234-1.25 0.38672-2.0312-0.29688-0.88281-1.1602-1.2227-1.5742-1.3906-2.9023-1.1602-5.0273-2.8359-6.4961-5.125-2-3.1133-3.1719-6.4297-3.4805-9.8594-0.17578-1.9648 0.3125-3.5469 1.4492-4.6914 0.91406-0.92188 2.0273-1.4062 3.2188-1.4062 1.8242 0.003906 3.5039 1.1719 4.3867 3.0508zm21.211 44.02c0.70313-0.25391 1.3867-0.53125 2.0352-0.82812 0.64062-0.29297 0.92578-1.0508 0.63281-1.6914s-1.0547-0.92969-1.6914-0.63281c-0.58203 0.26172-1.1953 0.51563-1.8516 0.75391-0.66406 0.24219-1.0039 0.97266-0.76562 1.6367 0.1875 0.51953 0.67969 0.83984 1.1992 0.83984 0.14844 0 0.29688-0.023437 0.44141-0.078125zm8.3906-5.2578c5.4023-5.7773 3.9766-12.535 3.9141-12.82-0.15234-0.6875-0.82812-1.1211-1.5195-0.96875-0.6875 0.14844-1.1211 0.82812-0.97656 1.5156 0.050782 0.23438 1.1719 5.7656-3.2852 10.527-0.48047 0.51562-0.45312 1.3242 0.0625 1.8047 0.24609 0.23047 0.55859 0.34375 0.87109 0.34375 0.33984 0.003906 0.67969-0.13281 0.93359-0.40234z"/>
</svg>
