<svg
  xmlns="http://www.w3.org/2000/svg"
  width="100pt"
  height="100pt"
  version="1.1"
  viewBox="0 0 100 100"
  aria-hidden="true"
>
  <path
    fill="currentColor"
    d="m93.617 67.609c-2 7.1914-5.457 12.867-10.562 17.348-2.4492 2.1602-10.145 6.6211-15.012 6.6211-1.0664 0-1.9844-0.23047-2.6953-0.73047-1.5469 0.55078-3.0625 0.84375-4.5742 0.84375-0.20313 0-0.40234-0.007812-0.60547-0.015625-1.082-0.054687-2.1406-0.32422-3.1641-0.59375-1.6055-0.41016-3.1211-0.80078-4.2539-0.21484-1.6055 0.82812-3.5273 0.89844-5.4062 0.20312-1.2969-0.48437-1.4883-0.44531-2.9688-0.17969l-0.42969 0.074219c-3.8906 0.69922-6.8594 0.65234-9.3047-0.12891-0.71094 0.5-1.6289 0.73047-2.6953 0.73047-4.8633 0-12.551-4.4609-15.004-6.625-5.1055-4.4766-8.5586-10.152-10.562-17.348-0.91797-3.2812-1.457-6.7539-1.3711-8.8477 0.089844-4.4727 0.29297-7.707 1.0781-10.914 0.85547-3.418 1.9453-6.3945 3.3359-9.1055 1.8125-3.5273 4.2266-6.6992 7.1719-9.4219 2.6758-2.4414 6.3711-4.3203 11.305-5.75 1.8633-0.49219 5.3906-0.69922 7.9688-0.85156l0.67969-0.039063c1.4766-0.30078 3.0039-0.35547 4.5352-0.16406 0.66797 0.082031 1.3633 0.25391 2.0352 0.42188 1.0508 0.26172 2.1367 0.52734 2.9336 0.40234 0.38672-0.0625 0.78516-0.17969 1.2109-0.30469 0.30859-0.089843 0.61719-0.17188 0.92969-0.24609 0.15234-1.8086 0.66406-11.215-4.8867-11.945l0.33203-2.5352c4.6133 0.60547 6.3281 4.7422 6.918 8.5352l1.2539-1.832c0.54297-0.79688 1.1602-1.7031 2.0156-2.4492 1.2344-1.0781 2.9023-1.793 4.9648-2.1211 1.8711-0.30078 3.3828-0.14453 4.6289 0.48047 1.8359 0.91797 2.7734 2.9492 2.1406 4.6211-0.92188 2.4141-4.125 2.7031-5.332 2.8125-0.48437 0.042968-1.957 0.17578-2.7227-0.94531-0.39844-0.58203-0.24609-1.3789 0.33594-1.7773 0.52734-0.35938 1.2305-0.26953 1.6562 0.18359 0.078125 0.011719 0.23047 0.015625 0.50391-0.007812 2.3281-0.21094 3.0117-0.75391 3.1719-1.1758 0.16406-0.43359-0.26172-1.1133-0.89453-1.4297-0.73828-0.37109-1.7734-0.45312-3.0742-0.24219-1.5586 0.24609-2.832 0.77344-3.6875 1.5234-0.60938 0.53125-1.1055 1.2617-1.5859 1.9648l-2.7188 3.9844c-0.097657 0.14453-0.22656 0.25391-0.36328 0.34375-0.003906 0.76953-0.035156 1.4219-0.066406 1.8828 0.3125 0.035157 0.61328 0.078125 0.90234 0.12109 0.57031 0.089844 1.1094 0.16016 1.6445 0.16406 0.76562-0.007813 1.6094-0.15625 2.5117-0.3125 0.66797-0.11719 1.332-0.23047 1.9688-0.29297 2.6797-0.24609 9.4609-0.64844 14.77 0.90625 4.0977 1.2031 7.7383 3.2422 10.82 6.0664 0.51953 0.47656 0.55469 1.2852 0.078124 1.8086-0.47656 0.51953-1.2812 0.55469-1.8047 0.078125-2.793-2.5586-6.0938-4.4062-9.8125-5.5-3.3867-0.99219-8.5469-1.3008-13.809-0.81641-0.56641 0.054687-1.168 0.16016-1.7695 0.26562-0.96094 0.16797-1.9492 0.33984-2.918 0.35156-0.74609 0-1.4141-0.09375-2.0625-0.19141-0.85547-0.13281-1.5898-0.24219-2.3711-0.074219-0.3125 0.070312-0.625 0.16016-0.93359 0.25-0.48047 0.14062-0.97656 0.28516-1.5195 0.375-1.3125 0.21094-2.7148-0.13672-3.957-0.44531-0.625-0.15625-1.2148-0.30078-1.7305-0.36719-1.2852-0.16016-2.5625-0.10938-3.793 0.14844-0.0625 0.011718-0.12109 0.019531-0.18359 0.023437l-0.77734 0.046875c-2.1875 0.12891-5.8516 0.34766-7.4375 0.76562-4.5195 1.3125-7.8828 3.0039-10.258 5.1719-2.7227 2.5156-4.9531 5.4453-6.6289 8.707-1.3008 2.5352-2.3242 5.332-3.1289 8.5469-0.72656 2.9727-0.92188 6.0586-1.0039 10.379-0.074219 1.8438 0.4375 5.082 1.2773 8.0781 1.8633 6.6992 5.0664 11.969 9.7852 16.113 3.1836 2.8047 10.281 6.0273 13.363 6.0195-0.027344-0.23828-0.011718-0.48438 0.10547-0.71484 0.31641-0.62891 1.082-0.88672 1.7148-0.56641 0.36328 0.18359 0.77734 0.35547 1.2266 0.51953 2.0664 0.76172 4.8242 0.81641 8.4492 0.16406l0.41797-0.078125c1.7539-0.31641 2.457-0.39453 4.3203 0.29688 1.1914 0.44531 2.3789 0.41406 3.3398-0.078125 2-1.0312 4.1562-0.47656 6.0625 0.011719 0.94531 0.24219 1.8359 0.47266 2.6562 0.51562 1.9062 0.10547 3.7812-0.35156 5.8945-1.3984l0.16016-0.074219 0.007813 0.011719c0.57031-0.35156 1.3203-0.20703 1.707 0.35156 0.21875 0.3125 0.27734 0.6875 0.19141 1.0352 3.25-0.16797 10.027-3.2891 13.109-6.0039 4.7227-4.1445 7.9258-9.4141 9.7891-16.113 0.83984-3 1.3555-6.2383 1.2812-8.0547-0.089844-4.3516-0.28125-7.4375-1.0117-10.414-0.16797-0.6875 0.25391-1.3789 0.9375-1.5469 0.68359-0.16797 1.375 0.25391 1.5469 0.9375 0.78125 3.207 0.98828 6.4414 1.0781 10.941 0.085938 2.082-0.45312 5.5547-1.3711 8.8359zm-4.1797-27.004c0.19531 0 0.39453-0.046875 0.58594-0.14062 0.62891-0.32422 0.875-1.0938 0.55469-1.7227-0.40234-0.78516-0.83984-1.5547-1.293-2.2969-0.37109-0.60156-1.1562-0.78906-1.7578-0.41797-0.60156 0.37109-0.78906 1.1562-0.42188 1.7578 0.42188 0.68359 0.82422 1.3984 1.1953 2.125 0.22656 0.44531 0.67578 0.69531 1.1367 0.69531zm-71.773 20.383c-0.63281 0.3125-0.89453 1.082-0.57812 1.7109 1.5508 3.1406 3.4023 6.2031 5.5 9.1094l0.45312 0.63281 0.76953-0.11328c3.2305-0.48438 6.4102-1.2266 9.4531-2.1992 2.1172 2.3633 4.4531 4.6016 6.9648 6.6562l0.61328 0.5 0.72266-0.32422c2.9453-1.3242 5.7773-2.8672 8.4297-4.6016 2.6445 1.7305 5.4727 3.2773 8.4219 4.6055l0.72266 0.32422 0.60938-0.5c2.5117-2.0547 4.8516-4.2891 6.9727-6.6562 3.0469 0.97656 6.2266 1.7148 9.4648 2.1953l0.76953 0.11328 0.45312-0.62891c2.1055-2.9062 3.957-5.9766 5.5117-9.1172 0.3125-0.63281 0.050781-1.3984-0.57812-1.7109-0.63672-0.3125-1.3984-0.058594-1.7148 0.57812-1.3789 2.7852-3.0039 5.5156-4.8359 8.1133-3.1094-0.50391-6.1562-1.2578-9.0625-2.2383l-0.8125-0.26953-0.5625 0.64453c-2.0039 2.3008-4.2266 4.4805-6.6133 6.4883-2.8203-1.3164-5.5195-2.8398-8.0352-4.5352l-0.71484-0.48438-0.71484 0.48047c-2.5195 1.6992-5.2188 3.2266-8.0391 4.5312-2.3906-2.0078-4.6094-4.1875-6.6055-6.4844l-0.5625-0.64453-0.8125 0.27344c-2.9062 0.98047-5.9453 1.7344-9.0508 2.2383-1.8281-2.6016-3.4492-5.3242-4.8281-8.1094-0.3125-0.62891-1.0781-0.89062-1.7109-0.57812zm11.547-1.1914c3.8281 0 6.9336-3.1055 6.9336-6.9297 0-3.8281-3.1055-6.9336-6.9336-6.9336-3.8281 0-6.9336 3.1055-6.9336 6.9336 0 3.8242 3.1016 6.9297 6.9336 6.9297zm41.582 0c3.8281 0 6.9297-3.1055 6.9297-6.9297 0-3.8281-3.1055-6.9336-6.9297-6.9336-3.8281 0-6.9336 3.1055-6.9336 6.9336 0 3.8242 3.1055 6.9297 6.9336 6.9297z"
  />
</svg>