<svg width="100pt" height="100pt" version="1.1" viewBox="0 0 100 100" xmlns="http://www.w3.org/2000/svg">
 <path d="m12.109 56.789c0.71484 0.71484 1.6602 1.0859 2.5938 1.0859 0.27344 0 0.54297-0.03125 0.80469-0.097656 5.582 4.793 12.527 7.2422 19.504 7.2422 5.9883 0 11.98-1.8086 17.133-5.4219l33.859 33.855c1.0273 1.0273 2.375 1.5391 3.7227 1.5391 1.3516 0 2.6953-0.51172 3.7266-1.5391 0.99609-0.99609 1.5469-2.3203 1.5469-3.7227 0-1.3828-0.5625-2.7383-1.5469-3.7227l-33.859-33.859c7.8242-11.176 7.0859-26.285-1.832-36.656 0.27344-1.1953-0.066407-2.4727-0.97266-3.3789-0.96094-0.96094-2.3516-1.2852-3.5859-0.92969-11.922-9.1172-28.719-8.0625-39.402 2.6211-10.688 10.684-11.742 27.488-2.6172 39.406-0.35547 1.2461-0.03125 2.625 0.92578 3.5781zm41.488-43.016c0.015625-0.011719 0.027344-0.019532 0.046875-0.03125l0.019531-0.011719c0.16797-0.097657 0.35156-0.14453 0.53516-0.14453 0.28125 0 0.5625 0.11328 0.77734 0.32812 0.33203 0.33203 0.41797 0.84766 0.16797 1.3359-0.035156 0.085938-0.089843 0.16406-0.16797 0.24219l-39.484 39.492c-0.066407 0.066406-0.14063 0.11328-0.21484 0.14844-0.023438 0.011719-0.042969 0.023438-0.070313 0.035157l-0.070312 0.03125c-0.40234 0.1875-0.89844 0.10547-1.2227-0.21875-0.35937-0.35938-0.43359-0.89062-0.15625-1.3633 0.042969-0.082032 0.089844-0.14453 0.15625-0.21094l39.488-39.484c0.0625-0.0625 0.12109-0.10547 0.19531-0.14844zm38.844 75.957c0 0.71094-0.28906 1.4102-0.80078 1.918-1.0195 1.0234-2.8086 1.0273-3.832 0l-33.59-33.594c0.0625-0.054688 0.12109-0.11719 0.1875-0.17188 0.625-0.52734 1.2344-1.0742 1.8203-1.6562 0.58203-0.58203 1.1289-1.1914 1.6523-1.8125 0.058594-0.066406 0.12109-0.125 0.17578-0.1875l33.594 33.594c0.50391 0.5 0.79297 1.1992 0.79297 1.9102zm-35.531-38.195c-0.75 1.0078-1.5898 1.9766-2.4961 2.8828s-1.875 1.7422-2.8906 2.5l-0.007813 0.003906c-10.082 7.6328-24.055 7.3203-33.777-0.57422l38.602-38.602c7.8984 9.7266 8.2109 23.699 0.57031 33.789zm-41.301-35.922c5.3477-5.3477 12.367-8.0625 19.418-8.0625 5.582 0 11.18 1.7031 15.977 5.1562l-19.152 19.148-19.152 19.152c-7.8086-10.855-6.668-25.816 2.9102-35.395zm11.855-1.6641c-0.19922-0.67578 0.1875-1.3867 0.86719-1.5859 1.3242-0.39062 2.6914-0.66406 4.0664-0.81641 0.69531-0.074219 1.332 0.42969 1.4102 1.1289 0.078125 0.70312-0.42969 1.332-1.1289 1.4102-1.2266 0.13672-2.4453 0.37891-3.625 0.72656-0.12109 0.035156-0.24219 0.050781-0.35938 0.050781-0.55859 0.003907-1.0664-0.35938-1.2305-0.91406zm-14.34 29.953c-1.9219-4.7422-2.25-10.082-0.91797-15.035 0.42188-1.5742 1.0117-3.1133 1.7539-4.5664 1.1211-2.207 2.5859-4.2188 4.3516-5.9844 1.2695-1.2695 2.6758-2.3906 4.1875-3.3359 0.59766-0.375 1.3867-0.19141 1.7617 0.40625 0.375 0.59766 0.19141 1.3867-0.40625 1.7617-1.3477 0.84375-2.6055 1.8438-3.7344 2.9766-1.5742 1.5742-2.8828 3.3711-3.8828 5.3359-0.66016 1.293-1.1836 2.6641-1.5625 4.0664-1.1875 4.418-0.89844 9.1836 0.81641 13.41 0.26562 0.65625-0.050782 1.3984-0.70313 1.6641-0.15625 0.0625-0.32031 0.09375-0.48047 0.09375-0.50391 0.003907-0.98047-0.29687-1.1836-0.79297z"/>
</svg>
