<svg width="100pt" height="100pt" version="1.1" viewBox="0 0 100 100" xmlns="http://www.w3.org/2000/svg">
 <path d="m40.117 78.184c-1.3086-1.9102-0.85547-4.3125 1.0078-5.6602 2.3203-1.6836 4.2852-0.89453 5.9258 0.99219 1.3867 1.5977 0.60547 4.4961-1.3086 5.7578-1.9766 1.3008-4.293 0.85156-5.625-1.0898zm34.195-27.371c-0.54297 0.63672-1.3633 0.64844-1.6719 0.65234-0.28906-0.019532-0.59766-0.011719-0.85547-0.019532-0.10156-0.003906-0.20703-0.007812-0.30859-0.011718-0.36328 0.64844-0.91016 0.80469-1.3555 0.80469-0.31641 0-0.60547-0.089843-0.84766-0.17969-0.8125-0.30078-1.5156-0.77344-2.1016-1.1953-1.9414-1.4023-3.875-2.8164-5.8086-4.2305l-2.3398-1.7109c-0.30859-0.22266-0.625-0.45703-0.9375-0.69141-0.4375-0.32422-0.875-0.65234-1.3242-0.96094-0.61328-0.42969-1.3359-0.92969-1.8242-0.96484-0.0625 0.019531-0.10938 0.0625-0.16406 0.10156-0.21094 0.14844-0.53125 0.375-0.98828 0.50391-0.050781 0.015625-0.10547 0.015625-0.16016 0.027344 0.003906 0.375-0.15625 0.72656-0.44531 0.96875-0.0625 0.14844-0.11328 0.29688-0.17578 0.44531-0.082031 0.19141-0.16406 0.38672-0.23828 0.57813l-0.24219 0.66016c-0.085938 0.23828-0.18359 0.48047-0.27734 0.71875 0.074218 0.10547 0.14844 0.21094 0.23828 0.30469 0.125 0.125 0.46094 0.46094 0.61328 0.52344 0.6875 0.11719 1.125 0.76172 1.0078 1.4531-0.007813 0.027344-0.023438 0.050781-0.03125 0.078125 4.0586 1.4258 7.5742 4.1016 10.027 7.6562 3.5938 5.2227 4.5391 11.855 2.5781 17.867l4.25 6.1719c0.33594 0.48828 0.28906 1.1445-0.11719 1.582-2.4961 2.6719-5.3672 5.1406-8.5273 7.3438-0.042968 0.039063-0.070312 0.089844-0.12109 0.125-0.046874 0.03125-0.10156 0.046876-0.14844 0.070313-0.011719 0.007813-0.019531 0.015625-0.03125 0.023437-3.1523 2.1719-6.4609 3.9844-9.8242 5.3867-0.16016 0.070313-0.32422 0.10156-0.48828 0.10156-0.40625 0-0.80078-0.19531-1.043-0.54688l-4.2969-6.2461c-1.0195-0.050781-2.0352-0.17969-3.0273-0.38281-0.68359-0.14062-1.1289-0.80859-0.98828-1.4922 0.14062-0.6875 0.80859-1.125 1.4922-0.98828 1.0547 0.21484 2.1406 0.33203 3.2266 0.35547 0.40625 0.007813 0.78906 0.21484 1.0195 0.54688l4.0703 5.9141c0.73438-0.32422 1.4688-0.67188 2.1953-1.0391l-1.6992-2.4688c-0.39453-0.57422-0.25391-1.3633 0.32422-1.7617 0.57813-0.39844 1.3672-0.25 1.7617 0.32422l1.8594 2.6992c1.0469-0.59375 2.0742-1.2344 3.0938-1.9062l-1.4922-2.168c-0.39453-0.57422-0.25391-1.3633 0.32422-1.7617 0.57812-0.39453 1.3633-0.25 1.7617 0.32422l1.4883 2.1602c0.98437-0.71875 1.9531-1.457 2.8711-2.2266l-1.8398-2.6719c-0.39453-0.57422-0.25391-1.3633 0.32422-1.7617 0.57812-0.39844 1.3633-0.25 1.7617 0.32422l1.6641 2.4219c0.59766-0.55469 1.1797-1.1211 1.7383-1.6953l-4.0273-5.8477c-0.23047-0.33984-0.28516-0.76562-0.14844-1.1484 1.9609-5.4102 1.1875-11.465-2.0664-16.191-2.4297-3.5273-6.0508-6.0625-10.195-7.1445-0.74219-0.19141-1.4961-0.32031-2.25-0.41797-0.14062 0.125-0.26172 0.26953-0.41406 0.38281-0.23047 0.17578-0.5 0.26172-0.76562 0.26172-0.38281 0-0.75781-0.17188-1.0078-0.49609-0.066407-0.085937-0.09375-0.18359-0.13672-0.27734-0.39844 0.003907-0.79688-0.003906-1.1953 0.023438-0.22266 0.39453-0.64453 0.65234-1.1094 0.65234-0.070312 0-0.14062-0.007813-0.21484-0.015625-0.30859-0.050781-0.58984-0.17969-0.85547-0.32812-0.90234 0.17969-1.7852 0.43359-2.6523 0.75-0.29688 0.28906-0.60547 0.5625-0.92969 0.8125-0.23047 0.17578-0.5 0.26172-0.76562 0.26172-0.17188 0-0.33984-0.046874-0.49609-0.11328-0.62109 0.32812-1.2305 0.68359-1.8125 1.0859-4.207 2.8945-6.9688 7.4609-7.582 12.523-0.46875 3.793 0.26953 7.5508 2.1328 10.863v0.003906c0 0.003906 0.003907 0.003906 0.003907 0.003906 0.26562 0.48047 0.55859 0.94141 0.875 1.3984 1.0039 1.4609 2.2188 2.7578 3.6055 3.8594 0.54688 0.43359 0.64062 1.2305 0.20312 1.7773-0.25 0.3125-0.61719 0.48047-0.99219 0.48047-0.27734 0-0.55469-0.089844-0.78516-0.27344-1.5859-1.2578-2.9727-2.7383-4.1172-4.4062-0.36328-0.53125-0.67969-1.0352-0.96875-1.5508l-0.003906-0.003906v-0.003906c-0.007813-0.015625-0.019532-0.03125-0.027344-0.046875-0.003906-0.007813-0.003906-0.015625-0.007812-0.019531-2.1289-3.8242-2.9609-8.0898-2.4297-12.391 0.69922-5.7812 3.8555-10.996 8.6602-14.301 0.76953-0.53125 1.582-0.98438 2.4062-1.3984-0.55078-0.10938-0.98047-0.55859-1.0156-1.1406-0.042969-0.69922 0.48828-1.2969 1.1875-1.3398 0.71094-0.042969 1.293-0.10156 1.8281-0.25781 0.41016-0.11719 0.82812-0.34375 1.2578-0.58984 0.16797-0.40625 0.32422-0.83203 0.48047-1.2695 0.10156-0.28125 0.20312-0.55859 0.3125-0.83594 0.10156-0.26562 0.21094-0.52734 0.32422-0.79297 0.14062-0.32812 0.28125-0.66016 0.39453-0.99219 0.003906-0.015625 0.015624-0.023438 0.023437-0.039063l-1.2422-5.0938c-0.019532-0.082031-0.007813-0.16406-0.011719-0.24219-0.25-0.23047-0.49219-0.46484-0.72656-0.69141-0.39453 0.13672-0.86328 0.15625-1.2852 0.039062-0.83984-0.23828-1.3516-0.87891-1.6641-1.3438-0.75-1.1094-1.5625-2.1953-2.3438-3.2461-2.0039-2.6914-4.0781-5.4727-5.3672-8.9219-0.39453-1.0586-0.83984-2.2539-0.82031-3.6211 0.023437-2.168 0.83203-4.0039 2.4102-5.4453 0.28906-0.26953 0.32031-0.36328 0.32031-0.375-0.085937-1.2891-0.52734-1.9531-1.5273-2.332l-0.3125-0.11328c-0.93359-0.33984-1.8984-0.69141-2.8281-1.25-0.39844-0.22266-0.73047-0.32812-1.0469-0.32812-0.34375 0-0.67578-0.14063-0.91406-0.39063s-0.36719-0.58203-0.35547-0.92969l0.011719-0.27734c0.011719-0.32031 0.14453-0.62109 0.375-0.84766 0.68359-0.67969 1.5586-1.1367 2.6016-1.3633 0.77344-0.16016 1.5156-0.21094 2.2305-0.25781 0.38281-0.023437 0.76172-0.050781 1.1367-0.09375 1.9062-0.21094 4.1875-0.42578 6.418-0.28516 2.9375 0.19141 5.0938 1.5234 6.4141 3.957 0.09375 0.17578 0.18359 0.33203 0.26953 0.49219 0.19922 0.35156 0.39453 0.69922 0.55469 1.0664 0.25781 0.57812 0.67578 1.0625 1.2266 1.6055 0.36719 0.36328 0.74219 0.72266 1.1172 1.082 0.91016 0.875 1.8555 1.7773 2.7188 2.7617 3.8242 4.3516 6.9688 7.8477 9.8867 11 1.4336 1.5391 2.7891 3.25 4.1367 5.2305 0.003906 0.003906 0.070312 0.10547 0.070312 0.10547 0.33203 0.49609 0.74219 1.1133 0.87109 1.9336 0.13672 0.91797-0.24609 1.6953-1.0078 2.1055 0.26953 0.21875 0.53125 0.44531 0.78906 0.69141 2.0781 1.9805 4.1406 3.9805 6.207 5.9844l1.5625 1.5156c0.19922 0.19531 0.35938 0.41406 0.51172 0.63672 0.28516 0.41016 0.38281 0.91016 0.26172 1.3672-0.007812 0.027344-0.015624 0.054688-0.023437 0.082031 0.44141 0.59766 0.9375 1.3867 1.0742 2.3945 0.039062 0.29688 0.16406 1.1172-0.37891 1.7578zm-25.141-8.9922c-0.40234-0.18359-0.76562-0.35547-1.0586-0.46094-1.1445-0.44531-2.2148-1.0352-3.207-1.7031l0.70703 2.9023c0.125 0.51172-0.082031 1.0273-0.48438 1.3203-0.078125 0.19922-0.15234 0.39453-0.23438 0.59375-0.10156 0.23438-0.19922 0.47266-0.29297 0.71094-0.10156 0.26562-0.19922 0.53125-0.29687 0.79688-0.125 0.34375-0.25391 0.6875-0.39063 1.0352 0.003907 0.003906 0.003907 0.007813 0.007813 0.007813 0.125 0.17187 0.24609 0.35156 0.40234 0.50391 0.050781 0.050781 0.125 0.12109 0.20703 0.20312 0.57031-0.078125 1.1406-0.14453 1.7188-0.17578 0.003906-0.66016 0.50781-1.2148 1.1758-1.2578 0.56641-0.035156 1.0312-0.082031 1.4492-0.19922 0.28906-0.085937 0.59375-0.24609 0.90625-0.42188 0.125-0.30859 0.24219-0.62109 0.36328-0.94922l0.25781-0.69531c0.082031-0.21875 0.17578-0.44141 0.27344-0.66406 0.089844-0.21484 0.17578-0.42969 0.25391-0.64453l-0.074219-0.19141c-0.57422-0.21094-1.1484-0.46484-1.6836-0.71094zm22.867 7.1016c-0.15234-0.35156-0.41406-0.69922-0.73437-1.1094-0.17969-0.20703-0.61328-0.70703-0.48047-1.4141 0.015625-0.066407 0.03125-0.13672 0.058593-0.21094l-1.3438-1.3008c-2.0625-2-4.1211-3.9922-6.1953-5.9727-0.37109-0.35547-0.79297-0.6875-1.2383-1.0352-0.26562-0.20703-0.52734-0.41016-0.78125-0.625l-0.10938-0.089844c-0.96094-0.75-0.91406-1.5117-0.71094-2.0156 0.058594-0.17188 0.41016-0.92188 1.5234-0.92188 0.085937 0 0.17578 0.003907 0.26172 0.007813 0.12891 0 0.24609-0.003906 0.34766-0.007813-0.082031-0.14453-0.1875-0.30469-0.30078-0.46875-1.3359-1.9609-2.6094-3.5742-3.9609-5.0195-2.9375-3.1758-6.0938-6.6836-9.9336-11.051-0.79297-0.90234-1.6562-1.7305-2.5703-2.6055-0.38281-0.36719-0.76953-0.73828-1.1484-1.1133-0.65234-0.64844-1.3164-1.3828-1.7617-2.3828-0.12891-0.29297-0.28516-0.56641-0.44141-0.84375-0.10156-0.17969-0.20312-0.35938-0.30078-0.54297-0.89844-1.6523-2.2812-2.4922-4.3438-2.6289-2.0391-0.13281-4.1797 0.078126-5.9727 0.27344-0.40625 0.046875-0.82812 0.074219-1.25 0.10156-0.35156 0.023438-0.69531 0.046876-1.0273 0.082032 0.53125 0.24609 1.082 0.44922 1.6602 0.65625l0.33203 0.12109c1.957 0.74219 3.0156 2.2578 3.1641 4.5 0.10938 1.293-0.78906 2.1289-1.1289 2.4414-1.0586 0.96875-1.5781 2.1523-1.5938 3.6172-0.015625 0.89453 0.3125 1.7734 0.66016 2.7031 1.1602 3.1094 3.0352 5.6289 5.0234 8.293 0.80078 1.0742 1.6289 2.1836 2.4102 3.3398 0.015625 0.023437 0.03125 0.046875 0.046875 0.066406 0.125-0.11719 0.27734-0.21094 0.44531-0.26953 0.46484-0.16406 0.98047-0.039063 1.3242 0.30859 1.793 1.8359 4.2148 4.0859 7.0352 5.1797 0.32031 0.11719 0.75 0.3125 1.2266 0.53125 0.59375 0.27344 1.3203 0.60156 1.9453 0.79297 0.070313 0.023437 0.14453 0.035156 0.21094 0.070312 0.22656 0.0625 0.43359 0.097656 0.60156 0.097656 0.14844-0.019531 0.22266-0.070312 0.33203-0.14844 0.30078-0.21094 0.80078-0.5625 1.6016-0.5625 0.03125 0 0.17969 0.007813 0.21094 0.007813 1.1797 0.085937 2.2266 0.81641 2.9883 1.3477 0.55469 0.38281 1.0195 0.72656 1.4805 1.0703 0.30469 0.22656 0.60547 0.45312 0.91406 0.67188l2.3516 1.7188c1.9297 1.4102 3.8594 2.8242 5.7969 4.2227 0.31641 0.23047 0.65234 0.46094 0.99609 0.64453 0.28516-0.33203 0.71484-0.5625 1.3086-0.5625h0.14453c0.25781 0 0.51953 0.011719 0.78125 0.019531 0.050781 0.003906 0.10156 0.007812 0.15625 0.007812zm-13.379 21.43c1.9414-1.3516 2.4219-3.7773 1.1211-5.7188-1.3984-2.0898-3.6016-2.4688-5.8203-0.99609-1.9766 1.3086-2.4531 3.7617-1.1055 5.7031 1.2578 1.8164 3.9648 2.2852 5.8047 1.0117z"/>
</svg>
