<svg width="100pt" height="100pt" version="1.1" viewBox="0 0 100 100" xmlns="http://www.w3.org/2000/svg">
 <path d="m88.742 34.062c0.51562-0.066406 1.0312-0.14062 1.5469-0.21875 0.92969-0.13672 1.8945-0.27734 2.832-0.35547 0.28125-0.023437 1.1445-0.10156 1.6172-0.83203 0.46875-0.73047 0.1875-1.5312 0.066407-1.8711-0.14844-0.38672-0.3125-0.77344-0.48047-1.1602l-0.24609-0.57422c-0.97266-2.2188-2.1602-4.0156-3.625-5.5039-2.0391-2.0586-4.6406-3.5938-7.7227-4.5508-1.1328-0.35547-1.4453-0.8125-1.582-1.418-0.09375-0.44531-0.25781-0.82422-0.40625-1.1602-0.070313-0.16016-0.14453-0.32422-0.21484-0.53125-1.8828-5.0977-5.5703-8.6055-11.289-10.73-0.62891-0.23047-1.1875-0.21094-1.6641 0.054688-0.47656 0.26562-0.78516 0.73047-0.90625 1.3477-0.17188 0.75391-0.25391 1.4961-0.33203 2.2109-0.039063 0.33594-0.074219 0.67188-0.12109 1.0039l-0.31641 2.1875c-0.21875 1.4883-0.43359 2.9805-0.63281 4.4648-0.15234 1.125-0.29688 2.2539-0.4375 3.3828-0.15625 1.2656-0.31641 2.5352-0.49609 3.8125-0.023437 0.19531-0.058593 0.39062-0.082031 0.58203-9.8633-4.1562-22.469-1.1562-31.277 7.6562-9.1992 9.1992-12.035 22.164-7.2617 32.168-0.69531 0.10156-1.3906 0.20312-2.0898 0.29688-1.2695 0.17578-2.543 0.33594-3.8125 0.49609-1.125 0.14063-2.25 0.28125-3.3672 0.43359-1.5 0.20312-2.9961 0.42188-4.4961 0.64062l-2.1641 0.31641c-0.32812 0.046874-0.66406 0.082031-0.99609 0.11719-0.71875 0.078125-1.4609 0.16016-2.1875 0.32812-0.64844 0.12891-1.1133 0.4375-1.3828 0.91406-0.26953 0.48047-0.28516 1.0391-0.054688 1.668 2.1211 5.7148 5.6289 9.4062 10.766 11.301 0.16797 0.058594 0.33203 0.13281 0.49219 0.20313 0.33594 0.14844 0.71484 0.31641 1.1445 0.40625 0.62109 0.13672 1.0742 0.44922 1.4336 1.5781 0.96094 3.0859 2.4922 5.6836 4.5547 7.7266 1.4883 1.4688 3.2852 2.6523 5.5234 3.6328l0.5625 0.23828c0.38281 0.16406 0.76953 0.33203 1.1914 0.49219 0.17188 0.066406 0.51172 0.18359 0.91016 0.18359 0.29297 0 0.61328-0.0625 0.92188-0.26172 0.73047-0.47266 0.80469-1.3359 0.83203-1.6211 0.078124-0.93359 0.21875-1.8945 0.35547-2.8242 0.074219-0.51953 0.15234-1.0352 0.21484-1.5469 0.11328-0.83594 0.22656-1.6758 0.34375-2.5117 0.26562-1.8945 0.52734-3.7891 0.73438-5.6758 0.11719-1.0039 0.25781-2 0.40234-3 0.14844-1.0586 0.29688-2.1445 0.41797-3.2266 3.1758 1.5117 6.6875 2.2539 10.301 2.2539 7.6719 0 15.773-3.3086 21.945-9.4805 8.8359-8.8359 11.828-21.453 7.6445-31.328 0.60156-0.078125 1.2031-0.16406 1.8047-0.25 0.96484-0.13672 1.9297-0.27344 2.8984-0.38281 1.9023-0.21094 3.8086-0.47656 5.7109-0.73828 0.82812-0.11719 1.6562-0.23438 2.4766-0.34375zm-55.73 43.137c-0.14453 1.0195-0.28906 2.043-0.41016 3.0742-0.20312 1.8672-0.46484 3.7383-0.72656 5.6055-0.11719 0.84375-0.23438 1.6875-0.34766 2.5312-0.066406 0.50391-0.13672 1.0039-0.21094 1.5078-0.10156 0.71094-0.21094 1.4336-0.30078 2.2148-0.125-0.050781-0.24609-0.10547-0.37109-0.15625l-0.56641-0.24219c-1.9258-0.84375-3.4727-1.8555-4.7305-3.1016-1.7617-1.7461-3.0742-3.9883-3.9102-6.6719-0.21484-0.6875-0.87109-2.7734-3.3398-3.3164-0.18359-0.039062-0.40625-0.13672-0.64844-0.24219-0.23438-0.10547-0.47266-0.20312-0.67969-0.27344-4.1484-1.5273-7.0781-4.5039-8.9531-9.1016 0.40234-0.0625 0.8125-0.10547 1.2422-0.15625 0.35547-0.039063 0.71484-0.078125 1.0742-0.12891l2.168-0.3125c1.4883-0.21875 2.9766-0.43359 4.4688-0.63281 1.1094-0.15234 2.2266-0.28906 3.3438-0.42969 1.2812-0.16016 2.5664-0.32031 3.8438-0.5 1.0195-0.13672 2.0391-0.28516 3.0625-0.4375 0.82812 1.3164 1.8047 2.5586 2.9375 3.6875 1.1016 1.1016 2.3086 2.0586 3.5859 2.875-0.011719 0.085937-0.023438 0.16797-0.03125 0.25781-0.125 1.3125-0.31641 2.6523-0.5 3.9492zm33.387-11.902c-2.3828 2.3789-5.0703 4.2812-7.9023 5.707l-0.94531-9.7539c-0.066406-0.69922-0.67969-1.2148-1.3945-1.1484-0.70312 0.066407-1.2188 0.69141-1.1484 1.3945l1.0273 10.609c-3.6484 1.4375-7.4531 2.1016-11.098 1.8945l-1.9922-14.289 1.2852-13.27c0.070312-0.70312-0.44531-1.3281-1.1484-1.3945-0.70703-0.070313-1.3281 0.44531-1.3945 1.1484l-1.3164 13.574 1.9414 13.91c-2.3906-0.42188-4.6797-1.2188-6.7578-2.4453-1.3633-0.79297-2.6406-1.7773-3.7891-2.9258-1.1836-1.1836-2.1875-2.4922-2.9922-3.9062-5.2734-9.0547-2.75-21.98 6-30.73 1.8516-1.8516 3.8906-3.3906 6.0234-4.6719l1.4297 11.918c0.078126 0.64844 0.62891 1.125 1.2656 1.125 0.050781 0 0.10156-0.003907 0.15234-0.007813 0.69922-0.085937 1.1992-0.72266 1.1172-1.4219l-1.5508-12.918c3.7617-1.8125 7.75-2.7891 11.625-2.7891 0.11328 0 0.22656 0.007812 0.34375 0.007812l1.4883 15.801-2.4688 14.531c-0.11719 0.69531 0.35156 1.3555 1.0469 1.4766 0.070312 0.011719 0.14453 0.019532 0.21484 0.019532 0.61328 0 1.1523-0.44141 1.2617-1.0625l2.5312-14.863-1.4844-15.715c2.4258 0.3125 4.7656 1.0078 6.9219 2.1289 1.7383 0.88672 3.3281 2.043 4.7227 3.4375 1.3672 1.3711 2.5117 2.9297 3.3984 4.6367l0.003906 0.003906s0.003906 0.003906 0.003906 0.007812c4.7695 9.0938 2.1328 21.43-6.4219 29.98zm13.871-32.695c-0.99609 0.11328-1.9883 0.25391-2.9766 0.39453-0.88281 0.125-1.7656 0.24219-2.6523 0.34766-0.9375-1.6367-2.0781-3.1445-3.4219-4.4883-1.3633-1.3633-2.9023-2.5156-4.5586-3.4531 0.070313-0.47656 0.14062-0.95703 0.20312-1.4336 0.17969-1.2773 0.33984-2.5586 0.5-3.8359 0.14062-1.1211 0.28125-2.2383 0.43359-3.3594 0.19922-1.4805 0.41406-2.9609 0.62891-4.4414l0.31641-2.1953c0.050781-0.35938 0.09375-0.72266 0.13281-1.082 0.046875-0.41797 0.09375-0.82422 0.15625-1.2305 4.5898 1.8633 7.5703 4.7969 9.0898 8.9141 0.082031 0.24219 0.18359 0.48047 0.28516 0.71484 0.10547 0.24219 0.20312 0.46875 0.24609 0.66797 0.54297 2.4531 2.6289 3.1055 3.3164 3.3242 2.6797 0.83594 4.9258 2.1484 6.668 3.9102 1.2422 1.2578 2.2578 2.8047 3.0938 4.7109l0.24609 0.57812c0.054688 0.125 0.10938 0.25391 0.16016 0.37891-0.75 0.085937-1.4922 0.19141-2.2188 0.29687-0.50391 0.074219-1.0039 0.14844-1.5117 0.21094-0.83203 0.10938-1.6641 0.22656-2.5 0.34375-1.875 0.25781-3.7539 0.51953-5.6367 0.72656z"/>
</svg>
