<svg width="100pt" height="100pt" version="1.1" viewBox="0 0 100 100" xmlns="http://www.w3.org/2000/svg">
 <path d="m5 89.91c0 0.70312 0.57422 1.2773 1.2773 1.2773h87.438c0.70312 0 1.2773-0.57422 1.2773-1.2773s-0.57422-1.2773-1.2773-1.2773h-6.2539c-0.43359-0.89453-0.73047-1.4922-0.73047-1.4922l-5.7539-6.0742-13.332-2.1719-5.332 3.5391c-0.023438-2.8516 0.039062-5.3828 0.0625-6.9141 0.027344-0.90625 0.039062-1.5352 0.027344-1.7539-0.21875-4.7812 1.2773-9.1914 3.2461-14.445 0.55078-1.4453 0.47266-2.9414 0.39453-4.3867-0.054688-0.94531-0.089844-1.8555 0.050781-2.6562 0.39453-2.3164 1.7148-4.375 3.1055-6.5586 0.5-0.76953 0.99609-1.5469 1.457-2.3398 0.84375-1.4727 1.8945-2.7734 2.9922-4.1562 0.70312-0.88281 1.4336-1.8047 2.1211-2.7734 0.74219-1.0625 1.0977-2.2773 1.457-3.4648 0.25391-0.85547 0.49609-1.6758 0.86719-2.3398 1.1758-2.1211-0.0625-3.043-0.86719-3.6562l-0.12891-0.089843c-0.83203-0.65234-2.3789-1.8672-4.1172-0.089844-0.37109 0.37109-0.76953 0.71484-1.1484 1.0625-0.5625 0.49609-1.1406 1.0234-1.6758 1.6094-1.2383 1.3438-2.25 2.8633-3.2344 4.332-1.0195 1.5195-1.9805 2.9648-3.1445 4.1914-0.12891-0.011718-0.38281-0.089844-0.70312-0.28125 0.015625-0.027344 0.023437-0.078125 0.039062-0.15234 0.70312-2.4414 1.5977-4.8945 2.4531-7.2734 0.91016-2.5195 1.8438-5.125 2.5977-7.7617 0.12891-0.48438 0.35547-1.0234 0.58594-1.5703 0.4375-1.0625 0.93359-2.2656 0.97266-3.543 0.050782-1.8008-1.8281-4.2188-3.5664-4.6016-1.8047-0.42187-4.5117 0.88281-5.2695 2.543-0.29688 0.66406-0.050781 1.2891 0.10156 1.6992 0.015625 0.023438 0.015625 0.050781 0.027344 0.074219-0.89453 2.5703-1.625 5.2031-2.3398 7.7734-0.47656 1.7383-0.98438 3.5547-1.5234 5.293-0.0625 0.21875-0.14062 0.47266-0.20312 0.73047-0.20312 0.74219-0.39453 1.3555-0.60156 1.8281 0.035156-0.48438 0.050782-0.75391 0.011719-0.98438-0.11328-0.76562-0.17969-1.5352-0.25781-2.3008-0.10156-1.0625-0.21875-2.1602-0.40625-3.2617-0.33594-1.8281-0.48828-3.6562-0.47656-5.6016 0.011719-1.6602 0.21875-2.4297 0.44922-3.3242 0.24219-0.90625 0.51172-1.9414 0.53516-3.9102-0.015625-2.6602-1.6602-4.5781-3.8984-4.5781-2.75 0-2.7734 2.6602-2.7852 4.0898v0.4375c-0.027343 1.5312-0.32031 3.0664-0.64062 4.6914-0.34375 1.6992-0.69141 3.4531-0.70312 5.2539-0.011719 1.5977 0.14062 3.1953 0.29297 4.7422 0.089844 0.87109 0.16797 1.6992 0.21875 2.5312-0.32031-1.0625-0.65234-2.1211-0.98438-3.1836-0.84375-2.6836-1.7148-5.4727-2.3633-8.2461-0.24219-1.0469-1.0117-1.7266-1.625-2.2617-0.29297-0.25781-0.5625-0.48438-0.73047-0.71484-0.67578-0.92188-1.7148-2.3125-3.7852-1.6992-1.7656 0.52344-1.8008 1.9805-1.8281 3.043v0.21875c-0.0625 0.089844-0.16797 0.21875-0.23047 0.30469-0.37109 0.46094-0.90625 1.1523-0.75391 2.0469 0.42188 2.543 1.1133 5.0352 1.7773 7.4531 0.52344 1.8789 1.0625 3.8242 1.457 5.7383 0.23047 1.1094 0.52344 2.2383 0.81641 3.3242 0.64062 2.3516 1.2383 4.5898 1.1367 6.8008-0.011719 0.42188-0.48438 0.95703-0.93359 1.4805-0.30859 0.35938-0.61328 0.71484-0.88281 1.125-0.11328 0.17969-0.19141 0.28125-0.25391 0.34375-0.23047-0.089843-0.70312-0.35937-0.88281-0.46094-0.55078-0.32031-1.125-0.52344-1.625-0.70312-0.57422-0.19141-1.0742-0.37109-1.4062-0.65234-2.4297-2.0195-4.8828-3.2734-7.4922-3.8242-1.4844-0.30859-2.7734-0.24219-4.0391 0.21875-1.9961 0.71875-2.1367 2.2109-2.25 3.4141-0.14062 1.7656 0.28125 2.5312 1.8281 3.3359 2.4414 1.2266 4.832 3.0664 7.3242 5.6367 1.2539 1.2695 2.3906 2.7266 3.4883 4.1172 0.84375 1.0742 1.7266 2.1875 2.6602 3.2305 0.67969 0.75781 1.5078 1.3438 2.3125 1.918 0.94531 0.66406 1.8398 1.293 2.3008 2.0859 1.2031 2.0469 1.2383 4.7305 1.2773 7.3242 0.011719 0.58594 0.027344 1.1758 0.039062 1.7266 0 0.19141-0.12891 0.86719-0.23047 1.4805-0.34375 1.7891-0.86719 4.6523-0.98438 7.875l-5.1133-2.5586-15.711 2.8633-3.9609 5.2656-10.762 0.015625c-0.70312 0.003906-1.2773 0.57812-1.2773 1.2812zm63.23-8.332 11.508 1.8789 4.7969 4.9727c0.023438 0.066406 0.0625 0.12891 0.10156 0.20312h-12.242l-6.9414-5.2148zm-5.8047 3.8594 0.70312 0.11328 1.1484 0.19141 3.8594 2.8906h-24.008l1.0859-0.35547 1.3672-0.4375 0.94531-0.30469c0.21875 0.023438 0.42188 0.050782 0.62891 0.074219l-0.21875-0.21875 8.8828-2.8906 1.8945 0.31641 1.4062 0.23047c0.039062 0.10156 0.078125 0.20312 0.11328 0.30469l0.34766-0.23047zm-21.504-24.965c-0.71484-0.49609-1.3945-0.98438-1.8789-1.5234-0.88281-0.99609-1.7266-2.0703-2.5586-3.1172-1.1367-1.4414-2.3281-2.9531-3.6562-4.3203-2.6953-2.7734-5.3164-4.7812-8.0039-6.1367-0.33203-0.16406-0.44531-0.24219-0.46094-0.21875 0-0.0625-0.011719-0.21875 0.011719-0.60156 0.10156-1.0742 0.10156-1.0742 0.57422-1.2422 0.81641-0.30469 1.6094-0.33203 2.6445-0.11328 2.2266 0.46094 4.2422 1.5078 6.3789 3.2852 0.69141 0.57422 1.4805 0.85547 2.1875 1.1016 0.43359 0.15234 0.85547 0.29297 1.2031 0.49609 1.2031 0.69141 3.0039 1.7266 4.5625-0.70312 0.19141-0.29297 0.43359-0.5625 0.67969-0.84375 0.65234-0.78125 1.4805-1.7383 1.5469-3.0312 0.12891-2.6211-0.5625-5.1523-1.2266-7.6055-0.29297-1.0859-0.57422-2.1211-0.78125-3.1562-0.42188-2.0078-0.96094-3.9883-1.4961-5.9062-0.625-2.2891-1.2773-4.6406-1.6875-6.9688 0.0625-0.089844 0.14062-0.19141 0.20312-0.26953 0.33203-0.42188 0.74219-0.94531 0.76563-1.6602l0.011718-0.38281c0-0.23047 0.011719-0.5 0.023438-0.66406 0.28125-0.074219 0.35938-0.0625 0.97266 0.78125 0.33203 0.44531 0.74219 0.80469 1.0977 1.125 0.37109 0.32031 0.76953 0.66406 0.81641 0.92188 0.67969 2.8633 1.5586 5.6875 2.418 8.4258 0.53516 1.6875 1.0625 3.3633 1.5195 5.0117 0.050782 0.21875 0.12891 0.38281 0.20313 0.5625v0.30859c-0.011719 0.52344-0.039063 2.1484 1.418 2.3008 1.3438 0.14062 2.082-0.34375 2.4688-0.77734 0.90625-1.0234 0.58984-2.4922 0.44531-3.1328l-0.011719-0.089844c0-1.5352-0.15234-3.0547-0.29688-4.5391-0.15234-1.5469-0.29297-3.0039-0.28125-4.4766 0.015625-1.5586 0.31641-3.1328 0.64844-4.793 0.32031-1.6602 0.66406-3.375 0.69141-5.1406v-0.46094c0.011719-0.55078 0.011719-1.3828 0.0625-1.5352 0 0 0.050781-0.011718 0.16797-0.011718 1.0508 0 1.3438 1.3281 1.3438 2.0078-0.023438 1.6367-0.23047 2.4414-0.44922 3.2852-0.25391 0.96094-0.52344 1.957-0.53516 3.9375-0.011718 2.1094 0.15234 4.0898 0.51172 6.0703 0.17969 0.99609 0.28125 1.9922 0.38281 3.0547 0.074218 0.80469 0.15234 1.6133 0.26953 2.3516 0 0.15234-0.035156 0.44922-0.0625 0.79297-0.15234 1.6875-0.29297 3.2852 1.1875 3.4531 3.0547 0.34766 4-3.0664 4.4609-4.7031 0.0625-0.23047 0.11328-0.44922 0.17969-0.64062 0.55078-1.7891 1.0625-3.6172 1.5508-5.3828 0.71484-2.6094 1.4688-5.293 2.3633-7.8359 0.23047-0.61328 0.023438-1.1914-0.12891-1.5742 0.47266-0.48438 1.6758-0.98438 2.2109-0.86719 0.5625 0.12891 1.5859 1.4688 1.5703 2.0469-0.023437 0.79297-0.38281 1.6875-0.77734 2.6211-0.25781 0.60156-0.51172 1.2266-0.6875 1.8555-0.71484 2.5586-1.6484 5.125-2.5312 7.5938-0.88281 2.4141-1.7773 4.9219-2.4922 7.4141-0.55078 1.7773 0.44922 2.6992 1.0898 3.082 1.1641 0.71484 2.7617 0.99609 3.7461-0.011719 1.3828-1.4336 2.4805-3.082 3.5391-4.6797 0.97266-1.457 1.8945-2.8242 2.9922-4.0273 0.44531-0.49609 0.96094-0.94531 1.4961-1.4336 0.42188-0.37109 0.85547-0.75391 1.2695-1.1641 0.050781-0.0625 0.10156-0.10156 0.14062-0.12891 0.16797 0.089844 0.43359 0.30859 0.60156 0.43359l0.14062 0.11328c0.089844 0.066406 0.19141 0.12891 0.26953 0.19141-0.027343 0.050782-0.050781 0.11328-0.089843 0.17969-0.51172 0.90625-0.80859 1.9062-1.0859 2.8516-0.30859 1.0352-0.58984 1.9922-1.1016 2.7227-0.64063 0.90625-1.3398 1.7891-2.0312 2.6602-1.1094 1.3789-2.25 2.8242-3.1953 4.4492-0.44531 0.76953-0.91797 1.5117-1.3945 2.2656-1.4688 2.2891-2.9883 4.6641-3.4766 7.4922-0.19141 1.0859-0.14062 2.1719-0.089843 3.2344 0.0625 1.2266 0.12891 2.3906-0.23047 3.3516-2.0078 5.3438-3.6562 10.199-3.4102 15.453 0.015626 0.20312 0 0.75391-0.027343 1.5703-0.023438 1.5352-0.089844 4.0156-0.0625 6.9414l-3.1445-0.52344-10.699 3.5039-0.55078-0.55078-0.85156-0.42969c-0.039063-0.0625-0.089844-0.12891-0.12891-0.17969 0.023437-3.4805 0.61328-6.6602 0.96094-8.5781 0.20312-1.1094 0.29297-1.6211 0.28125-2.0078-0.011718-0.5625-0.023437-1.125-0.039062-1.6992-0.039063-2.7852-0.074219-5.957-1.625-8.5898-0.75391-1.25-1.918-2.082-3.043-2.8711zm-18.445 25.219 13.883-2.5195 6.2539 3.1172c0 0.050782-0.011719 0.10156-0.039062 0.16406l-6.6484 2.1758h-15.66zm28.383-19.32v2.5234c0 0.70312-0.57031 1.2773-1.2773 1.2773s-1.2773-0.57031-1.2773-1.2773v-2.5234c0-0.70703 0.57031-1.2773 1.2773-1.2773 0.70312 0.003906 1.2773 0.57422 1.2773 1.2773zm0 6.2539v8.25c0 0.70312-0.57031 1.2773-1.2773 1.2773s-1.2773-0.57031-1.2773-1.2773v-8.25c0-0.70703 0.57031-1.2773 1.2773-1.2773 0.70312 0 1.2773 0.57031 1.2773 1.2773zm-4.2969-30.219c-0.011719-0.33203 0.027344-1.4297 1.4961-1.9297 0.67578-0.21875 1.3945 0.14063 1.625 0.82031 0.12891 0.40625 0.050781 0.83203-0.17969 1.1484 1.5977 1.2773 6.5586 3.3359 9.2305 4.0273 0.050781-0.16406 0.14062-0.33203 0.25391-0.48438 0.44922-0.53516 1.2656-0.61328 1.8047-0.16797 0.44922 0.37109 1.625 1.3555 1.0625 2.5312-0.34375 0.73047-1.0469 0.90625-1.7148 0.90625-0.43359 0-0.84375-0.074218-1.1094-0.12891-1.668-0.31641-12.254-3.6289-12.469-6.7227zm1.0156 14.191c-1.8398-0.5625-4.1719-1.2773-7.1484-2.1719-0.67578-0.20312-1.0625-0.91406-0.85938-1.5898 0.20313-0.67578 0.91797-1.0586 1.5938-0.85938 2.9844 0.89453 5.3203 1.6133 7.1641 2.1758 6.3242 1.9375 6.3438 1.9219 6.9453 1.5781 0.53125-0.30859 1.3438-0.76953 3.1094-1.2148 0.6875-0.17188 1.3828 0.24609 1.5508 0.92969 0.17188 0.6875-0.24219 1.3828-0.92969 1.5508-1.4297 0.35547-2.0234 0.69922-2.4609 0.94922-0.60547 0.34766-1.0039 0.55859-1.6641 0.55859-1.0703 0-2.8359-0.53906-7.3008-1.9062z"/>
</svg>
